<svg width="25" height="18" viewBox="0 0 25 18" fill="none" xmlns="http://www.w3.org/2000/svg">
<path d="M7.63086 2.7041C7.36719 2.7041 7.14453 2.61328 6.96289 2.43164C6.78125 2.25 6.69043 2.02734 6.69043 1.76367C6.69043 1.49414 6.78125 1.26855 6.96289 1.08691C7.14453 0.905273 7.36719 0.814453 7.63086 0.814453H23.0996C23.3691 0.814453 23.5918 0.905273 23.7676 1.08691C23.9492 1.26855 24.04 1.49414 24.04 1.76367C24.04 2.02734 23.9492 2.25 23.7676 2.43164C23.5918 2.61328 23.3691 2.7041 23.0996 2.7041H7.63086ZM7.63086 9.6123C7.36719 9.6123 7.14453 9.52148 6.96289 9.33984C6.78125 9.1582 6.69043 8.93262 6.69043 8.66309C6.69043 8.39941 6.78125 8.17676 6.96289 7.99512C7.14453 7.81348 7.36719 7.72266 7.63086 7.72266H23.0996C23.3691 7.72266 23.5918 7.81348 23.7676 7.99512C23.9492 8.17676 24.04 8.39941 24.04 8.66309C24.04 8.93262 23.9492 9.1582 23.7676 9.33984C23.5918 9.52148 23.3691 9.6123 23.0996 9.6123H7.63086ZM7.63086 16.5117C7.36719 16.5117 7.14453 16.4209 6.96289 16.2393C6.78125 16.0576 6.69043 15.835 6.69043 15.5713C6.69043 15.3018 6.78125 15.0791 6.96289 14.9033C7.14453 14.7217 7.36719 14.6309 7.63086 14.6309H23.0996C23.3691 14.6309 23.5918 14.7217 23.7676 14.9033C23.9492 15.085 24.04 15.3076 24.04 15.5713C24.04 15.835 23.9492 16.0576 23.7676 16.2393C23.5918 16.4209 23.3691 16.5117 23.0996 16.5117H7.63086ZM2.48047 3.29297C2.19336 3.29297 1.93555 3.22266 1.70703 3.08203C1.47852 2.94141 1.29395 2.75684 1.15332 2.52832C1.01855 2.29395 0.951172 2.03906 0.951172 1.76367C0.951172 1.47656 1.01855 1.21875 1.15332 0.990234C1.29395 0.761719 1.47852 0.580078 1.70703 0.445312C1.93555 0.304688 2.19336 0.234375 2.48047 0.234375C2.75586 0.234375 3.01074 0.304688 3.24512 0.445312C3.47949 0.580078 3.66406 0.761719 3.79883 0.990234C3.93359 1.21875 4.00098 1.47656 4.00098 1.76367C4.00098 2.03906 3.93359 2.29395 3.79883 2.52832C3.66406 2.75684 3.47949 2.94141 3.24512 3.08203C3.01074 3.22266 2.75586 3.29297 2.48047 3.29297ZM2.48047 10.1924C2.19336 10.1924 1.93555 10.125 1.70703 9.99023C1.47852 9.84961 1.29395 9.66504 1.15332 9.43652C1.01855 9.20215 0.951172 8.94434 0.951172 8.66309C0.951172 8.38184 1.01855 8.12695 1.15332 7.89844C1.29395 7.66992 1.47852 7.48535 1.70703 7.34473C1.93555 7.2041 2.19336 7.13379 2.48047 7.13379C2.75586 7.13379 3.01074 7.2041 3.24512 7.34473C3.47949 7.48535 3.66406 7.66992 3.79883 7.89844C3.93359 8.12695 4.00098 8.38184 4.00098 8.66309C4.00098 8.94434 3.93359 9.20215 3.79883 9.43652C3.66406 9.66504 3.47949 9.84961 3.24512 9.99023C3.01074 10.125 2.75586 10.1924 2.48047 10.1924ZM2.48047 17.1006C2.19336 17.1006 1.93555 17.0303 1.70703 16.8896C1.47852 16.7549 1.29395 16.5703 1.15332 16.3359C1.01855 16.1074 0.951172 15.8525 0.951172 15.5713C0.951172 15.29 1.01855 15.0352 1.15332 14.8066C1.29395 14.5723 1.47852 14.3877 1.70703 14.2529C1.93555 14.1123 2.19336 14.042 2.48047 14.042C2.75586 14.042 3.01074 14.1123 3.24512 14.2529C3.47949 14.3877 3.66406 14.5723 3.79883 14.8066C3.93359 15.0352 4.00098 15.29 4.00098 15.5713C4.00098 15.8525 3.93359 16.1074 3.79883 16.3359C3.66406 16.5703 3.47949 16.7549 3.24512 16.8896C3.01074 17.0303 2.75586 17.1006 2.48047 17.1006Z" fill="#999999"/>
</svg>
