<svg width="29" height="25" viewBox="0 0 29 25" fill="none" xmlns="http://www.w3.org/2000/svg">
<path d="M11.248 23.2363V16.0117C11.248 15.7598 11.3242 15.5576 11.4766 15.4053C11.6289 15.2529 11.8311 15.1768 12.083 15.1768H16.9258C17.1777 15.1768 17.377 15.2529 17.5234 15.4053C17.6758 15.5576 17.752 15.7598 17.752 16.0117V23.2363H11.248ZM1.94922 12.7949C1.63281 12.7949 1.38379 12.7012 1.20215 12.5137C1.02051 12.3203 0.929688 12.0977 0.929688 11.8457C0.929688 11.7051 0.961914 11.5674 1.02637 11.4326C1.09082 11.292 1.19043 11.166 1.3252 11.0547L13.0322 1.22852C13.4893 0.841797 13.9785 0.648438 14.5 0.648438C15.0215 0.648438 15.5107 0.841797 15.9678 1.22852L27.6748 11.0547C27.8096 11.166 27.9092 11.292 27.9736 11.4326C28.0381 11.5674 28.0703 11.7051 28.0703 11.8457C28.0703 12.0977 27.9795 12.3203 27.7979 12.5137C27.6221 12.7012 27.373 12.7949 27.0508 12.7949C26.8984 12.7949 26.7549 12.7598 26.6201 12.6895C26.4912 12.6191 26.3652 12.5342 26.2422 12.4346L14.9834 2.98633C14.8311 2.85742 14.6699 2.79297 14.5 2.79297C14.3301 2.79297 14.1689 2.85742 14.0166 2.98633L2.75781 12.4346C2.63477 12.5342 2.50586 12.6191 2.37109 12.6895C2.24219 12.7598 2.10156 12.7949 1.94922 12.7949ZM21.8213 6.72168V3.98828C21.8213 3.75977 21.8916 3.57812 22.0322 3.44336C22.1787 3.30273 22.3662 3.23242 22.5947 3.23242H23.9834C24.2178 3.23242 24.4053 3.30273 24.5459 3.44336C24.6865 3.57812 24.7568 3.75977 24.7568 3.98828V9.18262L21.8213 6.72168ZM6.84473 24.6514C6.01855 24.6514 5.37988 24.4287 4.92871 23.9834C4.47754 23.5439 4.25195 22.9199 4.25195 22.1113V9.5166L6.18555 8.18945V21.54C6.18555 21.9209 6.28223 22.2109 6.47559 22.4102C6.6748 22.6152 6.96484 22.7178 7.3457 22.7178H21.6455C22.0322 22.7178 22.3223 22.6152 22.5156 22.4102C22.7148 22.2109 22.8145 21.9209 22.8145 21.54V8.18066L24.7568 9.5166V22.1113C24.7568 22.9141 24.5283 23.5381 24.0713 23.9834C23.6201 24.4287 22.9814 24.6514 22.1553 24.6514H6.84473Z" fill="#333336"/>
</svg>
