<svg width="24" height="24" viewBox="0 0 24 24" fill="none" xmlns="http://www.w3.org/2000/svg">
<path d="M18.627 19.5029L11.5254 12.5508C11.4199 12.4453 11.3438 12.3398 11.2969 12.2344C11.25 12.123 11.2266 11.9912 11.2266 11.8389V1.64355H12.8262V10.6787L20.499 6.29297L21.2988 7.67285L13.4941 12.1465L19.8223 18.3955L18.627 19.5029ZM11.9912 23.2471C10.7139 23.2471 9.49512 23.0508 8.33496 22.6582C7.1748 22.2715 6.11133 21.7207 5.14453 21.0059C4.18359 20.2969 3.3457 19.459 2.63086 18.4922C1.92188 17.5312 1.37109 16.4707 0.978516 15.3105C0.591797 14.1504 0.398438 12.9316 0.398438 11.6543C0.398438 10.3711 0.591797 9.15234 0.978516 7.99805C1.37109 6.83789 1.92188 5.77441 2.63086 4.80762C3.3457 3.84082 4.18359 3.00293 5.14453 2.29395C6.11133 1.58496 7.1748 1.03418 8.33496 0.641602C9.49512 0.249023 10.7139 0.0527344 11.9912 0.0527344C13.2744 0.0527344 14.4932 0.249023 15.6475 0.641602C16.8076 1.03418 17.8711 1.58496 18.8379 2.29395C19.8047 3.00293 20.6426 3.84082 21.3516 4.80762C22.0605 5.77441 22.6113 6.83789 23.0039 7.99805C23.3965 9.15234 23.5928 10.3711 23.5928 11.6543C23.5928 12.9316 23.3965 14.1504 23.0039 15.3105C22.6113 16.4707 22.0605 17.5312 21.3516 18.4922C20.6426 19.459 19.8047 20.2969 18.8379 21.0059C17.8711 21.7207 16.8076 22.2715 15.6475 22.6582C14.4932 23.0508 13.2744 23.2471 11.9912 23.2471ZM11.9912 21.2344C13.0518 21.2344 14.0596 21.0732 15.0146 20.751C15.9756 20.4287 16.8545 19.9746 17.6514 19.3887C18.4482 18.8027 19.1396 18.1113 19.7256 17.3145C20.3174 16.5117 20.7715 15.6328 21.0879 14.6777C21.4102 13.7227 21.5713 12.7148 21.5713 11.6543C21.5713 10.5938 21.4102 9.58594 21.0879 8.63086C20.7715 7.66992 20.3174 6.79102 19.7256 5.99414C19.1396 5.19727 18.4482 4.50586 17.6514 3.91992C16.8545 3.32813 15.9756 2.87402 15.0146 2.55762C14.0596 2.23535 13.0518 2.07422 11.9912 2.07422C10.9307 2.07422 9.92285 2.23535 8.96777 2.55762C8.0127 2.87402 7.13379 3.32813 6.33105 3.91992C5.53418 4.50586 4.84277 5.19727 4.25684 5.99414C3.6709 6.79102 3.2168 7.66992 2.89453 8.63086C2.57227 9.58594 2.41113 10.5938 2.41113 11.6543C2.41113 12.7148 2.57227 13.7227 2.89453 14.6777C3.2168 15.6328 3.6709 16.5117 4.25684 17.3145C4.84277 18.1113 5.53418 18.8027 6.33105 19.3887C7.13379 19.9746 8.0127 20.4287 8.96777 20.751C9.92285 21.0732 10.9307 21.2344 11.9912 21.2344Z" fill="#999999"/>
</svg>
